<?xml version="1.0" standalone="no"?>
<!DOCTYPE svg PUBLIC "-//W3C//DTD SVG 20010904//EN"
 "http://www.w3.org/TR/2001/REC-SVG-20010904/DTD/svg10.dtd">
<svg version="1.0" xmlns="http://www.w3.org/2000/svg"
 width="1000.000000pt" height="1000.000000pt" viewBox="0 0 1000.000000 1000.000000"
 preserveAspectRatio="xMidYMid meet">
<metadata>
Created by potrace 1.11, written by Peter Selinger 2001-2013
</metadata>
<g transform="translate(0.000000,1000.000000) scale(0.100000,-0.100000)"
fill="#000000" stroke="none">
<path d="M4760 9073 c-597 -40 -1124 -180 -1624 -430 -181 -90 -266 -140 -446
-258 -953 -627 -1619 -1637 -1814 -2753 -49 -279 -60 -415 -60 -742 0 -327 11
-457 60 -740 199 -1133 880 -2153 1859 -2782 437 -281 925 -478 1440 -582 293
-60 419 -71 815 -71 391 0 487 8 780 61 666 122 1303 415 1850 850 173 138
505 469 644 644 194 244 375 531 507 804 251 521 387 1072 407 1641 22 626
-67 1164 -285 1715 -472 1193 -1469 2109 -2695 2475 -283 85 -612 144 -918
165 -133 9 -410 11 -520 3z m392 -1401 c57 -28 193 -161 1334 -1304 1428
-1431 1318 -1308 1319 -1468 0 -148 4 -143 -338 -487 -345 -347 -359 -357
-497 -357 -143 0 -118 -20 -727 588 l-543 540 -2 -1399 -3 -1400 -23 -56 c-26
-64 -87 -139 -142 -174 -84 -53 -114 -56 -557 -53 l-408 3 -57 27 c-73 34
-142 103 -176 176 l-27 57 -3 1410 -2 1409 -533 -531 c-471 -471 -539 -535
-591 -559 -115 -52 -252 -42 -351 27 -22 15 -162 150 -312 301 -290 292 -305
311 -323 424 -11 67 3 150 35 214 17 32 393 414 1307 1327 l1283 1281 65 21
c94 30 189 24 272 -17z"/>
</g>
</svg>
