<?xml version="1.0" encoding="utf-8"?>
<!-- Generator: Adobe Illustrator 21.1.0, SVG Export Plug-In . SVG Version: 6.00 Build 0)  -->
<svg version="1.1" id="Layer_1" xmlns="http://www.w3.org/2000/svg" xmlns:xlink="http://www.w3.org/1999/xlink" x="0px" y="0px"
	 width="100px" height="100px" viewBox="0 0 100 100" style="enable-background:new 0 0 100 100;" xml:space="preserve">
<g>
	<path d="M78.2,88.7H21.7c-6.9,0-9.5-4.8-5.8-10.6l24.7-38.9V19.6h-3.1c-1.7,0-3.1-1.4-3.1-3.1s1.4-3.1,3.1-3.1h25.1
		c1.7,0,3.1,1.4,3.1,3.1s-1.4,3.1-3.1,3.1h-3.1v19.6L84,78.1C87.7,83.9,85.1,88.7,78.2,88.7z M32.4,63.6h34.9L54,42.5l-1-1.5v-1.8
		V19.6h-6.3v19.6V41l-1,1.5L32.4,63.6z"/>
</g>
<g>
</g>
<g>
</g>
<g>
</g>
<g>
</g>
<g>
</g>
</svg>
