<svg version="1.1" xmlns="http://www.w3.org/2000/svg" viewBox="0 0 100 100">
	<path d="M78.8,70.9c-0.9,2.1-3.2,3.4-5.1,4.5c-2.5,1.3-5,2.1-7.8,2.1c-3.9,0-7.5-1.6-11-2.9c-2.6-0.9-5.1-2.1-7.4-3.5
		C40.2,66.7,31.6,58,27.1,50.8c-1.4-2.3-2.6-4.8-3.5-7.4c-1.3-3.6-2.9-7.1-2.9-11c0-2.8,0.8-5.4,2.1-7.8c1.1-1.9,2.4-4.3,4.5-5.1
		c1.4-0.6,4.3-1.3,5.9-1.3c0.3,0,0.6,0,0.9,0.1c0.9,0.3,1.8,2.4,2.2,3.2c1.3,2.4,2.7,4.8,4,7.2c0.7,1.1,1.9,2.4,1.9,3.8
		c0,2.6-7.6,6.3-7.6,8.6c0,1.1,1.1,2.6,1.6,3.6c4.3,7.7,9.6,13,17.2,17.2c1,0.6,2.5,1.6,3.6,1.6c2.3,0,6-7.6,8.6-7.6
		c1.3,0,2.7,1.3,3.8,1.9c2.4,1.4,4.8,2.7,7.2,4c0.8,0.4,2.9,1.3,3.2,2.2c0.1,0.3,0.1,0.6,0.1,0.9C80.1,66.5,79.4,69.5,78.8,70.9z"/>
</svg>
