<svg version="1.1" xmlns="http://www.w3.org/2000/svg" viewBox="0 0 100 100">
	<path d="M84.7,52.5c0.3,1.1,0.4,2.2,0.4,3.3c0,2.4-0.6,4.9-1.8,7c0.1,0.7,0.1,1.4,0.1,2.1c0,3.1-1,6.2-2.9,8.6
		c0.1,9.2-6.2,14.6-15.1,14.6h-1.7h-4.5c-6.9,0-13.3-2-19.7-4.3c-1.4-0.5-5.3-1.9-6.7-1.9h-14c-3.4,0-6.2-2.8-6.2-6.2v-31
		c0-3.4,2.8-6.2,6.2-6.2H32c1.9-1.3,5.2-5.6,6.6-7.5c1.6-2.1,3.3-4.2,5.2-6.2c2.9-3.1,1.4-10.8,6.2-15.5c1.2-1.1,2.7-1.8,4.4-1.8
		c5,0,9.9,1.8,12.3,6.5c1.5,3,1.7,5.8,1.7,9c0,3.4-0.9,6.3-2.3,9.3h8.5c6.7,0,12.4,5.7,12.4,12.4C87,47.4,86.2,50.2,84.7,52.5z
		 M21.9,69.5c-1.7,0-3.1,1.4-3.1,3.1s1.4,3.1,3.1,3.1s3.1-1.4,3.1-3.1S23.6,69.5,21.9,69.5z M74.6,38.4H57.6c0-5.7,4.7-9.8,4.7-15.5
		c0-5.7-1.1-9.3-7.8-9.3c-3.1,3.2-1.5,10.6-6.2,15.5c-1.4,1.4-2.5,2.9-3.7,4.4c-2.2,2.8-8,11.1-11.8,11.1h-1.6v31h1.6
		c2.7,0,7.2,1.7,9.8,2.7c5.3,1.8,10.9,3.5,16.6,3.5H65c5.5,0,9.3-2.2,9.3-8.1c0-0.9-0.1-1.8-0.2-2.7c2-1.1,3.2-3.9,3.2-6.1
		c0-1.2-0.3-2.3-0.9-3.3c1.6-1.6,2.6-3.5,2.6-5.8c0-1.6-0.7-3.8-1.7-5c2.3,0,3.6-4.4,3.6-6.2C80.8,41.3,77.9,38.4,74.6,38.4z"/>
</svg>
