<?xml version="1.0" encoding="utf-8"?>
<!-- Generator: Adobe Illustrator 21.1.0, SVG Export Plug-In . SVG Version: 6.00 Build 0)  -->
<svg version="1.1" id="Layer_1" xmlns="http://www.w3.org/2000/svg" xmlns:xlink="http://www.w3.org/1999/xlink" x="0px" y="0px"
	 width="100px" height="100px" viewBox="0 0 100 100" style="enable-background:new 0 0 100 100;" xml:space="preserve">
<g>
	<path d="M86.5,46.5H13.5V30.9c0-3.6,2.9-6.5,6.5-6.5h14.3v-6.5c0-2.2,1.8-3.9,3.9-3.9h23.4c2.2,0,3.9,1.8,3.9,3.9v6.5h14.3
		c3.6,0,6.5,2.9,6.5,6.5V46.5z M86.5,70c0,3.6-2.9,6.5-6.5,6.5H20c-3.6,0-6.5-2.9-6.5-6.5V50.5h27.3V57c0,1.4,1.2,2.6,2.6,2.6h13
		c1.4,0,2.6-1.2,2.6-2.6v-6.5h27.3V70z M60.4,24.4v-5.2H39.6v5.2H60.4z M55.2,55.7H44.8v-5.2h10.4V55.7z"/>
</g>
<g>
</g>
<g>
</g>
<g>
</g>
<g>
</g>
<g>
</g>
</svg>
