<?xml version="1.0" encoding="utf-8"?>
<!-- Generator: Adobe Illustrator 21.1.0, SVG Export Plug-In . SVG Version: 6.00 Build 0)  -->
<svg version="1.1" id="Layer_1" xmlns="http://www.w3.org/2000/svg" xmlns:xlink="http://www.w3.org/1999/xlink" x="0px" y="0px"
	 width="100px" height="100px" viewBox="0 0 100 100" style="enable-background:new 0 0 100 100;" xml:space="preserve">
<g>
	<path d="M82.8,55.3c-0.2,0.3-0.6,0.4-0.9,0.5c0,0-0.1,0-0.1,0c-0.3,0-0.7-0.1-0.9-0.3L50.7,30.3L20.5,55.5c-0.3,0.2-0.7,0.3-1,0.3
		c-0.3,0-0.7-0.2-0.9-0.5l-2.7-3.2c-0.5-0.6-0.4-1.5,0.2-2L47.4,24c1.8-1.5,4.8-1.5,6.6,0l10.6,8.9v-8.5c0-0.8,0.6-1.4,1.4-1.4h8.4
		c0.8,0,1.4,0.6,1.4,1.4v17.8l9.6,7.9c0.6,0.5,0.7,1.4,0.2,2L82.8,55.3z M75.8,76c0,1.5-1.3,2.8-2.8,2.8H56.3V62.1H45.1v16.7H28.4
		c-1.5,0-2.8-1.3-2.8-2.8V55.1c0-0.1,0-0.2,0-0.3l25.1-20.7l25.1,20.7c0,0.1,0,0.2,0,0.3V76z"/>
</g>
<g>
</g>
<g>
</g>
<g>
</g>
<g>
</g>
<g>
</g>
</svg>
