<?xml version="1.0" encoding="utf-8"?>
<!-- Generator: Adobe Illustrator 21.1.0, SVG Export Plug-In . SVG Version: 6.00 Build 0)  -->
<svg version="1.1" id="Layer_1" xmlns="http://www.w3.org/2000/svg" xmlns:xlink="http://www.w3.org/1999/xlink" x="0px" y="0px"
	 width="100px" height="100px" viewBox="0 0 100 100" style="enable-background:new 0 0 100 100;" xml:space="preserve">
<g>
	<path d="M87.9,42.5C85.1,56,76.5,64.7,64.4,70.7c-5.8,2.9-12.4,4.7-18.9,4.7c-4.2,0-8.4-0.7-12.4-2c-2.1-0.7-6.2-3.4-8-3.4
		c-2.2,0-4.8,8.8-8.5,8.8c-2.7,0-3.5-1.3-4.7-3.3c-0.4-0.7-0.7-1-0.7-1.9c0-4.5,8.6-8,8.6-10.5c0-0.4-1.1-2.7-1.3-3.5
		c-0.3-1.5-0.4-3-0.4-4.5c0-13.8,10.9-23.6,23.2-27.6c8.9-2.9,27.7,0.5,33.7-5.2c2.4-2.2,3.5-4.2,7.2-4.2c4.9,0,6.5,12.7,6.5,16.4
		C88.8,36.9,88.5,39.7,87.9,42.5z M63.8,40c-15.3,0-25.2,6.4-35.2,17.4c-0.5,0.6-0.8,1.2-0.8,1.9c0,1.5,1.3,2.8,2.8,2.8
		c0.8,0,1.4-0.3,1.9-0.8c2.1-1.9,4-4,6.1-5.9c7.8-7.1,14.5-9.9,25.2-9.9c1.5,0,2.8-1.3,2.8-2.8S65.4,40,63.8,40z"/>
</g>
<g>
</g>
<g>
</g>
<g>
</g>
<g>
</g>
<g>
</g>
</svg>
