<svg version="1.1" xmlns="http://www.w3.org/2000/svg" viewBox="0 0 100 100">
	<path d="M83.6,81.8c0,2.8-2.4,5.2-5.2,5.2H21.1c-2.8,0-5.2-2.4-5.2-5.2V29.7c0-2.8,2.4-5.2,5.2-5.2h5.2v-3.9c0-3.6,2.9-6.5,6.5-6.5
		h2.6c3.6,0,6.5,2.9,6.5,6.5v3.9h15.6v-3.9c0-3.6,2.9-6.5,6.5-6.5h2.6c3.6,0,6.5,2.9,6.5,6.5v3.9h5.2c2.8,0,5.2,2.4,5.2,5.2V81.8z
		 M32.8,51.8V40.1H21.1v11.7H32.8z M32.8,67.5v-13H21.1v13H32.8z M32.8,81.8V70.1H21.1v11.7H32.8z M36.8,20.6c0-0.7-0.6-1.3-1.3-1.3
		h-2.6c-0.7,0-1.3,0.6-1.3,1.3v11.7c0,0.7,0.6,1.3,1.3,1.3h2.6c0.7,0,1.3-0.6,1.3-1.3V20.6z M48.5,51.8V40.1h-13v11.7H48.5z
		 M48.5,67.5v-13h-13v13H48.5z M48.5,81.8V70.1h-13v11.7H48.5z M64.1,51.8V40.1h-13v11.7H64.1z M64.1,67.5v-13h-13v13H64.1z
		 M64.1,81.8V70.1h-13v11.7H64.1z M68,20.6c0-0.7-0.6-1.3-1.3-1.3h-2.6c-0.7,0-1.3,0.6-1.3,1.3v11.7c0,0.7,0.6,1.3,1.3,1.3h2.6
		c0.7,0,1.3-0.6,1.3-1.3V20.6z M78.4,51.8V40.1H66.7v11.7H78.4z M78.4,67.5v-13H66.7v13H78.4z M78.4,81.8V70.1H66.7v11.7H78.4z"/>
</svg>
