<svg version="1.1" xmlns="http://www.w3.org/2000/svg" viewBox="0 0 100 100">
	<path d="M80,79.7c-0.5,0.7-1.3,1.1-2.1,1.1H22.6c-0.9,0-1.7-0.4-2.1-1.1c-3.6-5.7-5.6-12.3-5.6-19c0-19.5,15.8-35.3,35.3-35.3
		s35.3,15.8,35.3,35.3C85.5,67.5,83.6,74,80,79.7z M25,55.7c-2.8,0-5,2.2-5,5s2.2,5,5,5s5-2.2,5-5S27.8,55.7,25,55.7z M32.6,38
		c-2.8,0-5,2.2-5,5s2.2,5,5,5s5-2.2,5-5S35.4,38,32.6,38z M58.4,47c0.3-1.3-0.5-2.7-1.8-3.1c-1.3-0.4-2.7,0.5-3.1,1.8l-4,15
		c-3.1,0.2-5.8,2.4-6.7,5.6c-1.1,4.1,1.4,8.2,5.4,9.3c4.1,1.1,8.2-1.4,9.3-5.4c0.8-3.2-0.5-6.4-3.1-8.2L58.4,47z M50.2,30.5
		c-2.8,0-5,2.2-5,5s2.2,5,5,5c2.8,0,5-2.2,5-5S53,30.5,50.2,30.5z M67.9,38c-2.8,0-5,2.2-5,5s2.2,5,5,5s5-2.2,5-5S70.7,38,67.9,38z
		 M75.4,55.7c-2.8,0-5,2.2-5,5s2.2,5,5,5s5-2.2,5-5S78.2,55.7,75.4,55.7z"/>
</svg>
