<svg version="1.1" xmlns="http://www.w3.org/2000/svg" viewBox="0 0 100 100">
	<path d="M78.6,42.6c-6.1,4.2-12.3,8.5-18.4,12.8c-2.6,1.8-6.9,5.4-10.1,5.4h0h0c-3.2,0-7.5-3.6-10.1-5.4
		c-6.1-4.3-12.3-8.5-18.4-12.8c-2.8-1.9-6.8-6.3-6.8-9.9c0-3.9,2.1-7.2,6.3-7.2H79c3.4,0,6.3,2.8,6.3,6.3
		C85.3,36.2,82,40.2,78.6,42.6z M85.3,74.6c0,3.5-2.8,6.3-6.3,6.3H21.1c-3.5,0-6.3-2.8-6.3-6.3V43.4c1.2,1.3,2.5,2.4,4,3.4
		c6.5,4.4,13.1,8.9,19.6,13.6c3.3,2.4,7.4,5.4,11.7,5.4h0h0c4.3,0,8.4-3,11.7-5.4c6.4-4.6,13-9.1,19.6-13.6c1.4-1,2.8-2.1,3.9-3.4
		V74.6z"/>
</svg>
