<?xml version="1.0" standalone="no"?>
<!DOCTYPE svg PUBLIC "-//W3C//DTD SVG 20010904//EN"
 "http://www.w3.org/TR/2001/REC-SVG-20010904/DTD/svg10.dtd">
<svg version="1.0" xmlns="http://www.w3.org/2000/svg"
 width="1000.000000pt" height="1000.000000pt" viewBox="0 0 1000.000000 1000.000000"
 preserveAspectRatio="xMidYMid meet">
<metadata>
Created by potrace 1.11, written by Peter Selinger 2001-2013
</metadata>
<g transform="translate(0.000000,1000.000000) scale(0.100000,-0.100000)"
fill="#000000" stroke="none">
<path d="M8925 9059 c-216 -33 -327 -102 -615 -384 -261 -255 -354 -315 -630
-406 -410 -135 -841 -180 -2015 -209 -812 -21 -1206 -53 -1531 -126 -411 -91
-1026 -370 -1464 -664 -823 -552 -1373 -1287 -1579 -2107 -73 -291 -85 -402
-86 -763 0 -253 4 -339 18 -435 24 -161 27 -172 113 -386 41 -102 74 -195 74
-205 0 -10 -12 -43 -26 -73 -35 -76 -173 -210 -424 -411 -232 -186 -442 -390
-514 -499 -86 -130 -122 -244 -114 -362 4 -55 13 -81 48 -146 177 -323 284
-428 480 -469 117 -25 222 -16 306 26 141 69 286 238 508 596 133 213 218 337
264 388 45 48 112 86 154 86 77 0 228 -61 578 -235 375 -186 460 -219 752
-295 411 -105 775 -150 1223 -150 500 -1 911 57 1398 196 680 194 1475 595
2080 1051 303 227 674 575 879 823 611 739 959 1594 1064 2615 22 211 25 666
6 835 -106 928 -341 1538 -649 1682 -57 27 -81 32 -153 34 -47 2 -112 -1 -145
-7z m-2023 -2817 c77 -38 130 -92 167 -171 22 -47 26 -70 26 -141 0 -73 -4
-93 -28 -142 -37 -75 -98 -135 -176 -171 l-65 -31 -260 -7 c-278 -8 -392 -17
-630 -50 -718 -98 -1335 -368 -1967 -861 -214 -167 -361 -300 -699 -633 -526
-518 -554 -539 -700 -539 -93 0 -172 33 -242 101 -68 67 -102 148 -102 243 0
141 34 188 434 594 344 349 605 581 903 804 805 604 1645 928 2632 1017 228
20 272 22 470 21 l171 -1 66 -33z"/>
</g>
</svg>
